<svg width="300" height="140" viewBox="0 0 300 140" fill="none" xmlns="http://www.w3.org/2000/svg">
<path d="M127.826 111.766C131.061 112.949 133.565 114.671 135.339 116.934C137.113 119.197 138 121.923 138 125.111C138 129.843 136.017 133.52 132.052 136.143C128.087 138.714 122.348 140 114.835 140H84V86H113.27C120.574 86 126.078 87.2857 129.783 89.8571C133.539 92.4286 135.417 95.8486 135.417 100.117C135.417 102.637 134.765 104.9 133.461 106.906C132.209 108.911 130.33 110.531 127.826 111.766ZM102.157 98.7286V106.751H110.765C114.783 106.751 116.791 105.414 116.791 102.74C116.791 100.066 114.783 98.7286 110.765 98.7286H102.157ZM113.27 127.271C117.339 127.271 119.374 125.857 119.374 123.029C119.374 120.2 117.339 118.786 113.27 118.786H102.157V127.271H113.27Z" fill="#3F475A"/>
<path d="M195.107 140L194.95 115.391L183.007 135.14H174.836L162.893 116.24V140H146V86H161.243L179.157 114.774L196.6 86H211.843L212 140H195.107Z" fill="#3F475A"/>
<path d="M249.915 140C244.239 140 239.125 138.869 234.574 136.607C230.023 134.295 226.443 131.098 223.835 127.016C221.278 122.885 220 118.213 220 113C220 107.787 221.278 103.139 223.835 99.0574C226.443 94.9262 230.023 91.7295 234.574 89.4672C239.125 87.1557 244.239 86 249.915 86C255.131 86 259.784 86.8852 263.875 88.6557C267.966 90.4262 271.341 92.9836 274 96.3279L262.571 106.139C259.247 102.107 255.335 100.09 250.835 100.09C247.051 100.09 244.009 101.27 241.707 103.631C239.406 105.943 238.256 109.066 238.256 113C238.256 116.934 239.406 120.082 241.707 122.443C244.009 124.754 247.051 125.91 250.835 125.91C255.335 125.91 259.247 123.893 262.571 119.861L274 129.672C271.341 133.016 267.966 135.574 263.875 137.344C259.784 139.115 255.131 140 249.915 140Z" fill="#3F475A"/>
<path fill-rule="evenodd" clip-rule="evenodd" d="M300 0V140H286.096V15.3892L13.9037 45.5993V125.711H71.6578V140H0V33.2964L300 0Z" fill="#3F475A"/>
</svg>
